<svg width="33" height="32" viewBox="0 0 33 32" fill="none" xmlns="http://www.w3.org/2000/svg">
<path d="M12.5 15C18.0228 15 22.5 12.9853 22.5 10.5C22.5 8.01472 18.0228 6 12.5 6C6.97715 6 2.5 8.01472 2.5 10.5C2.5 12.9853 6.97715 15 12.5 15Z" stroke="#018636" stroke-width="1.6875" stroke-linecap="round" stroke-linejoin="round"/>
<path d="M2.5 10.5V15.5C2.5 17.9875 6.975 20 12.5 20C18.025 20 22.5 17.9875 22.5 15.5V10.5" stroke="#018636" stroke-width="1.6875" stroke-linecap="round" stroke-linejoin="round"/>
<path d="M8.5 14.625V19.625" stroke="#018636" stroke-width="1.6875" stroke-linecap="round" stroke-linejoin="round"/>
<path d="M22.5 12.0876C27.0625 12.5126 30.5 14.3251 30.5 16.5001C30.5 18.9876 26.025 21.0001 20.5 21.0001C18.05 21.0001 15.8 20.6001 14.0625 19.9501" stroke="#018636" stroke-width="1.6875" stroke-linecap="round" stroke-linejoin="round"/>
<path d="M10.5 19.9125V21.5C10.5 23.9875 14.975 26 20.5 26C26.025 26 30.5 23.9875 30.5 21.5V16.5" stroke="#018636" stroke-width="1.6875" stroke-linecap="round" stroke-linejoin="round"/>
<path d="M24.5 20.625V25.625" stroke="#018636" stroke-width="1.6875" stroke-linecap="round" stroke-linejoin="round"/>
<path d="M16.5 14.625V25.625" stroke="#018636" stroke-width="1.6875" stroke-linecap="round" stroke-linejoin="round"/>
</svg>
