<svg width="33" height="32" viewBox="0 0 33 32" fill="none" xmlns="http://www.w3.org/2000/svg">
<path d="M16.5 22C19.8137 22 22.5 19.3137 22.5 16C22.5 12.6863 19.8137 10 16.5 10C13.1863 10 10.5 12.6863 10.5 16C10.5 19.3137 13.1863 22 16.5 22Z" stroke="#A4A4A4" stroke-width="1.5" stroke-linecap="round" stroke-linejoin="round"/>
<path d="M23.4625 8.13745C23.7791 8.42912 24.0791 8.72912 24.3624 9.03745L27.775 9.52495C28.331 10.4906 28.7595 11.5242 29.0499 12.6L26.975 15.3625C26.975 15.3625 27.0125 16.2125 26.975 16.6375L29.0499 19.4C28.7609 20.4762 28.3322 21.5099 27.775 22.475L24.3624 22.9625C24.3624 22.9625 23.775 23.5749 23.4625 23.8624L22.975 27.275C22.0093 27.831 20.9757 28.2595 19.9 28.5499L17.1375 26.475C16.7133 26.5125 16.2866 26.5125 15.8625 26.475L13.1 28.5499C12.0237 28.2609 10.99 27.8322 10.025 27.275L9.53745 23.8624C9.22912 23.5708 8.92912 23.2708 8.63745 22.9625L5.22495 22.475C4.66893 21.5093 4.24036 20.4757 3.94995 19.4L6.02495 16.6375C6.02495 16.6375 5.98745 15.7875 6.02495 15.3625L3.94995 12.6C4.23902 11.5237 4.66765 10.49 5.22495 9.52495L8.63745 9.03745C8.92912 8.72912 9.22912 8.42912 9.53745 8.13745L10.025 4.72495C10.9906 4.16893 12.0242 3.74036 13.1 3.44995L15.8625 5.52495C16.2866 5.48744 16.7133 5.48744 17.1375 5.52495L19.9 3.44995C20.9762 3.73902 22.0099 4.16765 22.975 4.72495L23.4625 8.13745Z" stroke="#A4A4A4" stroke-width="1.5" stroke-linecap="round" stroke-linejoin="round"/>
</svg>
