<svg width="33" height="32" viewBox="0 0 33 32" fill="none" xmlns="http://www.w3.org/2000/svg">
<path d="M12.5 16H20.5" stroke="#018636" stroke-width="1.5" stroke-linecap="round" stroke-linejoin="round"/>
<path d="M12.5 20H20.5" stroke="#018636" stroke-width="1.5" stroke-linecap="round" stroke-linejoin="round"/>
<path d="M7.5 5H25.5C25.7652 5 26.0196 5.10536 26.2071 5.29289C26.3946 5.48043 26.5 5.73478 26.5 6V25C26.5 25.7956 26.1839 26.5587 25.6213 27.1213C25.0587 27.6839 24.2956 28 23.5 28H9.5C8.70435 28 7.94129 27.6839 7.37868 27.1213C6.81607 26.5587 6.5 25.7956 6.5 25V6C6.5 5.73478 6.60536 5.48043 6.79289 5.29289C6.98043 5.10536 7.23478 5 7.5 5V5Z" stroke="#018636" stroke-width="1.5" stroke-linecap="round" stroke-linejoin="round"/>
<path d="M10.5 3V7" stroke="#018636" stroke-width="1.5" stroke-linecap="round" stroke-linejoin="round"/>
<path d="M16.5 3V7" stroke="#018636" stroke-width="1.5" stroke-linecap="round" stroke-linejoin="round"/>
<path d="M22.5 3V7" stroke="#018636" stroke-width="1.5" stroke-linecap="round" stroke-linejoin="round"/>
</svg>
