<svg width="33" height="32" viewBox="0 0 33 32" fill="none" xmlns="http://www.w3.org/2000/svg">
<path d="M28.5 22.1625V9.83753C28.499 9.6595 28.4512 9.48487 28.3612 9.33125C28.2712 9.17763 28.1423 9.05045 27.9875 8.96253L16.9875 2.77503C16.8393 2.68946 16.6711 2.64441 16.5 2.64441C16.3289 2.64441 16.1607 2.68946 16.0125 2.77503L5.0125 8.96253C4.85769 9.05045 4.72879 9.17763 4.63882 9.33125C4.54884 9.48487 4.50096 9.6595 4.5 9.83753V22.1625C4.50096 22.3406 4.54884 22.5152 4.63882 22.6688C4.72879 22.8224 4.85769 22.9496 5.0125 23.0375L16.0125 29.225C16.1607 29.3106 16.3289 29.3557 16.5 29.3557C16.6711 29.3557 16.8393 29.3106 16.9875 29.225L27.9875 23.0375C28.1423 22.9496 28.2712 22.8224 28.3612 22.6688C28.4512 22.5152 28.499 22.3406 28.5 22.1625V22.1625Z" stroke="#A4A4A4" stroke-width="1.5" stroke-linecap="round" stroke-linejoin="round"/>
<path d="M22.625 19.0625V12.5625L10.5 5.875" stroke="#A4A4A4" stroke-width="1.5" stroke-linecap="round" stroke-linejoin="round"/>
<path d="M28.3624 9.32495L16.6125 16L4.63745 9.32495" stroke="#A4A4A4" stroke-width="1.5" stroke-linecap="round" stroke-linejoin="round"/>
<path d="M16.6125 16L16.5 29.35" stroke="#A4A4A4" stroke-width="1.5" stroke-linecap="round" stroke-linejoin="round"/>
</svg>
